# xmcd
#
# Track frame offsets: 
#        150
#        12119
#        24587
#        36988
#        48524
#        60030
#        70079
#        82845
#        97010
#        109742
#        122188
#        133672
#        147508
#        159844
#        171359
#        183786
#        195503
#        207010
#        219329
#        231361
#
# Disc length: 3275 seconds
#
# Revision: 0
# Processed by: cddbd v1.5.2PL0 Copyright (c) Steve Scherf et al.
# Submitted via: ExactAudioCopyFreeDBPlugin 1.0
#
DISCID=0b0cc914
DTITLE=Jimmy Reed - Five Classic Albums - CD3
DYEAR=1961
DGENRE=Blues
TTITLE0=Honest I Do
TTITLE1=Go On To School
TTITLE2=My First Plea
TTITLE3=Boogie In The Dark
TTITLE4=You Got Me Crying
TTITLE5=Ain't That Lovin' You Baby
TTITLE6=You Got Me Dizzy
TTITLE7=Little Rain
TTITLE8=Can't Stand To See You Go
TTITLE9=Roll And Rhumba
TTITLE10=You're Something Else
TTITLE11=You Don't Have To Go
TTITLE12=Pretty Thing
TTITLE13=I'm Gonna Ruin You
TTITLE14=I Don't Go For That
TTITLE15=She Don't Want Me No more
TTITLE16=Baby, Don't See That No More
TTITLE17=I Love You Baby
TTITLE18=Honey, Don't Let Me Go
TTITLE19=Honey, Where You Going
EXTD=
EXTT0=
EXTT1=
EXTT2=
EXTT3=
EXTT4=
EXTT5=
EXTT6=
EXTT7=
EXTT8=
EXTT9=
EXTT10=
EXTT11=
EXTT12=
EXTT13=
EXTT14=
EXTT15=
EXTT16=
EXTT17=
EXTT18=
EXTT19=
PLAYORDER=
